<?xml version="1.0" encoding="UTF-8" standalone="no"?>
<!DOCTYPE svg PUBLIC "-//W3C//DTD SVG 1.1//EN"
 "http://www.w3.org/Graphics/SVG/1.1/DTD/svg11.dtd">
<!-- Generated by graphviz version 2.40.1 (0)
 -->
<!-- Title: G Pages: 1 -->
<svg width="431pt" height="288pt"
 viewBox="0.00 0.00 430.83 288.00" xmlns="http://www.w3.org/2000/svg" xmlns:xlink="http://www.w3.org/1999/xlink">
<g id="graph0" class="graph" transform="scale(.7129 .7129) rotate(0) translate(4 400)">
<title>G</title>
<polygon fill="#ffffff" stroke="transparent" points="-4,4 -4,-400 600.3568,-400 600.3568,4 -4,4"/>
<!-- u0 -->
<g id="node1" class="node">
<title>u0</title>
<ellipse fill="#bbffbb" stroke="#000000" stroke-width="0" cx="312.7404" cy="-90" rx="38.1938" ry="18"/>
<text text-anchor="middle" x="312.7404" y="-86.3" font-family="Times,serif" font-size="14.00" fill="#000000">Circle</text>
</g>
<!-- u1 -->
<g id="node2" class="node">
<title>u1</title>
<ellipse fill="#bbffbb" stroke="#000000" stroke-width="0" cx="410.7404" cy="-18" rx="38.1938" ry="18"/>
<text text-anchor="middle" x="410.7404" y="-14.3" font-family="Times,serif" font-size="14.00" fill="#000000">Space</text>
</g>
<!-- u0&#45;&gt;u1 -->
<g id="edge1" class="edge">
<title>u0&#45;&gt;u1</title>
<path fill="none" stroke="#000000" d="M333.5237,-74.7307C347.556,-64.4212 366.2717,-50.6709 381.7628,-39.2896"/>
<polygon fill="#000000" stroke="#000000" points="384.0005,-41.9887 389.9871,-33.2473 379.8559,-36.3475 384.0005,-41.9887"/>
</g>
<!-- u2 -->
<g id="node3" class="node">
<title>u2</title>
<ellipse fill="#bbffbb" stroke="#000000" stroke-width="0" cx="410.7404" cy="-306" rx="37.8943" ry="18"/>
<text text-anchor="middle" x="410.7404" y="-302.3" font-family="Times,serif" font-size="14.00" fill="#000000">Game</text>
</g>
<!-- u2&#45;&gt;u0 -->
<g id="edge2" class="edge">
<title>u2&#45;&gt;u0</title>
<path fill="none" stroke="#000000" d="M402.7206,-288.3238C385.5935,-250.5741 345.3497,-161.8736 324.9925,-117.0047"/>
<polygon fill="#000000" stroke="#000000" points="328.0525,-115.2779 320.7335,-107.6175 321.6779,-118.1702 328.0525,-115.2779"/>
</g>
<!-- u2&#45;&gt;u1 -->
<g id="edge3" class="edge">
<title>u2&#45;&gt;u1</title>
<path fill="none" stroke="#000000" d="M434.4229,-291.9213C465.7599,-271.7262 519.5109,-231.2526 540.7404,-180 565.5156,-120.1873 491.6057,-64.5935 445.2404,-36.7178"/>
<polygon fill="#000000" stroke="#000000" points="446.7691,-33.5569 436.372,-31.5192 443.2291,-39.5958 446.7691,-33.5569"/>
</g>
<!-- u3 -->
<g id="node4" class="node">
<title>u3</title>
<ellipse fill="#bbffbb" stroke="#000000" stroke-width="0" cx="119.7404" cy="-234" rx="40.0939" ry="18"/>
<text text-anchor="middle" x="119.7404" y="-230.3" font-family="Times,serif" font-size="14.00" fill="#000000">Player</text>
</g>
<!-- u2&#45;&gt;u3 -->
<g id="edge4" class="edge">
<title>u2&#45;&gt;u3</title>
<path fill="none" stroke="#000000" d="M377.0747,-297.6703C324.7463,-284.7231 223.8213,-259.752 165.1162,-245.227"/>
<polygon fill="#000000" stroke="#000000" points="165.9172,-241.8197 155.3692,-242.8154 164.2358,-248.6148 165.9172,-241.8197"/>
</g>
<!-- u4 -->
<g id="node5" class="node">
<title>u4</title>
<ellipse fill="#bbffbb" stroke="#000000" stroke-width="0" cx="499.7404" cy="-162" rx="32.4942" ry="18"/>
<text text-anchor="middle" x="499.7404" y="-158.3" font-family="Times,serif" font-size="14.00" fill="#000000">Shot</text>
</g>
<!-- u2&#45;&gt;u4 -->
<g id="edge5" class="edge">
<title>u2&#45;&gt;u4</title>
<path fill="none" stroke="#000000" d="M421.4759,-288.6302C436.9115,-263.6557 465.4957,-217.4072 483.517,-188.2491"/>
<polygon fill="#000000" stroke="#000000" points="486.6866,-189.7779 488.9668,-179.4314 480.7321,-186.0977 486.6866,-189.7779"/>
</g>
<!-- u3&#45;&gt;u0 -->
<g id="edge6" class="edge">
<title>u3&#45;&gt;u0</title>
<path fill="none" stroke="#000000" d="M140.7622,-218.3154C175.3679,-192.4956 244.4028,-140.9876 283.6667,-111.6923"/>
<polygon fill="#000000" stroke="#000000" points="286.1147,-114.2327 292.0366,-105.4474 281.9287,-108.6222 286.1147,-114.2327"/>
</g>
<!-- u3&#45;&gt;u1 -->
<g id="edge7" class="edge">
<title>u3&#45;&gt;u1</title>
<path fill="none" stroke="#000000" d="M130.6482,-216.4191C152.2369,-183.103 203.7299,-110.6566 265.7404,-72 297.2807,-52.3381 337.0832,-38.1558 367.0038,-29.2733"/>
<polygon fill="#000000" stroke="#000000" points="368.1072,-32.5978 376.7458,-26.4639 366.1675,-25.8719 368.1072,-32.5978"/>
</g>
<!-- u3&#45;&gt;u4 -->
<g id="edge8" class="edge">
<title>u3&#45;&gt;u4</title>
<path fill="none" stroke="#000000" d="M156.8683,-226.9652C228.3924,-213.4133 384.7622,-183.7853 459.0249,-169.7145"/>
<polygon fill="#000000" stroke="#000000" points="459.7678,-173.1361 468.9414,-167.8356 458.4646,-166.2585 459.7678,-173.1361"/>
</g>
<!-- u4&#45;&gt;u0 -->
<g id="edge9" class="edge">
<title>u4&#45;&gt;u0</title>
<path fill="none" stroke="#000000" d="M472.9478,-151.6842C441.3772,-139.5286 388.6347,-119.2214 352.3432,-105.2481"/>
<polygon fill="#000000" stroke="#000000" points="353.1644,-101.8139 342.5746,-101.487 350.6492,-108.3464 353.1644,-101.8139"/>
</g>
<!-- u4&#45;&gt;u1 -->
<g id="edge10" class="edge">
<title>u4&#45;&gt;u1</title>
<path fill="none" stroke="#000000" d="M489.1814,-144.9158C473.8084,-120.0427 445.1302,-73.6419 427.0358,-44.3656"/>
<polygon fill="#000000" stroke="#000000" points="429.7979,-42.1773 421.5632,-35.511 423.8434,-45.8576 429.7979,-42.1773"/>
</g>
<!-- u5 -->
<g id="node6" class="node">
<title>u5</title>
<ellipse fill="#bbffbb" stroke="#000000" stroke-width="0" cx="410.7404" cy="-378" rx="34.394" ry="18"/>
<text text-anchor="middle" x="410.7404" y="-374.3" font-family="Times,serif" font-size="14.00" fill="#000000">Main</text>
</g>
<!-- u5&#45;&gt;u2 -->
<g id="edge11" class="edge">
<title>u5&#45;&gt;u2</title>
<path fill="none" stroke="#000000" d="M410.7404,-359.8314C410.7404,-352.131 410.7404,-342.9743 410.7404,-334.4166"/>
<polygon fill="#000000" stroke="#000000" points="414.2405,-334.4132 410.7404,-324.4133 407.2405,-334.4133 414.2405,-334.4132"/>
</g>
</g>
</svg>
