<?xml version="1.0" encoding="UTF-8" standalone="no"?>
<!DOCTYPE svg PUBLIC "-//W3C//DTD SVG 1.1//EN"
 "http://www.w3.org/Graphics/SVG/1.1/DTD/svg11.dtd">
<!-- Generated by graphviz version 2.40.1 (0)
 -->
<!-- Title: G Pages: 1 -->
<svg width="430pt" height="288pt"
 viewBox="0.00 0.00 430.24 288.00" xmlns="http://www.w3.org/2000/svg" xmlns:xlink="http://www.w3.org/1999/xlink">
<g id="graph0" class="graph" transform="scale(.605 .605) rotate(0) translate(4 472)">
<title>G</title>
<polygon fill="#ffffff" stroke="transparent" points="-4,4 -4,-472 707.0964,-472 707.0964,4 -4,4"/>
<!-- u0 -->
<g id="node1" class="node">
<title>u0</title>
<ellipse fill="#bbffbb" stroke="#000000" stroke-width="0" cx="310.9739" cy="-90" rx="38.1938" ry="18"/>
<text text-anchor="middle" x="310.9739" y="-86.3" font-family="Times,serif" font-size="14.00" fill="#000000">Circle</text>
</g>
<!-- u1 -->
<g id="node2" class="node">
<title>u1</title>
<ellipse fill="#bbffbb" stroke="#000000" stroke-width="0" cx="310.9739" cy="-18" rx="38.1938" ry="18"/>
<text text-anchor="middle" x="310.9739" y="-14.3" font-family="Times,serif" font-size="14.00" fill="#000000">Space</text>
</g>
<!-- u0&#45;&gt;u1 -->
<g id="edge1" class="edge">
<title>u0&#45;&gt;u1</title>
<path fill="none" stroke="#000000" d="M310.9739,-71.8314C310.9739,-64.131 310.9739,-54.9743 310.9739,-46.4166"/>
<polygon fill="#000000" stroke="#000000" points="314.474,-46.4132 310.9739,-36.4133 307.474,-46.4133 314.474,-46.4132"/>
</g>
<!-- u2 -->
<g id="node3" class="node">
<title>u2</title>
<ellipse fill="#bbffbb" stroke="#000000" stroke-width="0" cx="280.9739" cy="-378" rx="37.8943" ry="18"/>
<text text-anchor="middle" x="280.9739" y="-374.3" font-family="Times,serif" font-size="14.00" fill="#000000">Game</text>
</g>
<!-- u2&#45;&gt;u1 -->
<g id="edge2" class="edge">
<title>u2&#45;&gt;u1</title>
<path fill="none" stroke="#000000" d="M317.5766,-373.2205C384.9956,-362.1453 521.9739,-328.0686 521.9739,-234 521.9739,-234 521.9739,-234 521.9739,-162 521.9739,-82.3892 418.2296,-43.6225 356.2316,-27.5633"/>
<polygon fill="#000000" stroke="#000000" points="356.8399,-24.1079 346.2906,-25.0892 355.1493,-30.9007 356.8399,-24.1079"/>
</g>
<!-- u3 -->
<g id="node4" class="node">
<title>u3</title>
<ellipse fill="#bbffbb" stroke="#000000" stroke-width="0" cx="280.9739" cy="-306" rx="40.0939" ry="18"/>
<text text-anchor="middle" x="280.9739" y="-302.3" font-family="Times,serif" font-size="14.00" fill="#000000">Match</text>
</g>
<!-- u2&#45;&gt;u3 -->
<g id="edge3" class="edge">
<title>u2&#45;&gt;u3</title>
<path fill="none" stroke="#000000" d="M280.9739,-359.8314C280.9739,-352.131 280.9739,-342.9743 280.9739,-334.4166"/>
<polygon fill="#000000" stroke="#000000" points="284.474,-334.4132 280.9739,-324.4133 277.474,-334.4133 284.474,-334.4132"/>
</g>
<!-- u5 -->
<g id="node6" class="node">
<title>u5</title>
<ellipse fill="#bbffbb" stroke="#000000" stroke-width="0" cx="65.9739" cy="-162" rx="32.4942" ry="18"/>
<text text-anchor="middle" x="65.9739" y="-158.3" font-family="Times,serif" font-size="14.00" fill="#000000">Shot</text>
</g>
<!-- u2&#45;&gt;u5 -->
<g id="edge4" class="edge">
<title>u2&#45;&gt;u5</title>
<path fill="none" stroke="#000000" d="M257.1196,-364.0001C222.8748,-343.0166 159.2585,-300.6394 116.9739,-252 100.4181,-232.9561 86.6724,-207.7049 77.6394,-188.7971"/>
<polygon fill="#000000" stroke="#000000" points="80.7361,-187.1553 73.3554,-179.5543 74.3852,-190.099 80.7361,-187.1553"/>
</g>
<!-- u3&#45;&gt;u0 -->
<g id="edge5" class="edge">
<title>u3&#45;&gt;u0</title>
<path fill="none" stroke="#000000" d="M283.4801,-287.9555C288.708,-250.3144 300.8091,-163.1867 307.0677,-118.1246"/>
<polygon fill="#000000" stroke="#000000" points="310.5447,-118.5315 308.4538,-108.1451 303.6113,-117.5685 310.5447,-118.5315"/>
</g>
<!-- u3&#45;&gt;u1 -->
<g id="edge6" class="edge">
<title>u3&#45;&gt;u1</title>
<path fill="none" stroke="#000000" d="M290.577,-288.4054C308.3631,-254.6508 345.7333,-177.9364 357.9739,-108 360.7324,-92.2396 363.5819,-86.985 357.9739,-72 353.6613,-60.4762 345.6553,-49.7895 337.4575,-41.016"/>
<polygon fill="#000000" stroke="#000000" points="339.8299,-38.4383 330.292,-33.8254 334.8715,-43.3794 339.8299,-38.4383"/>
</g>
<!-- u4 -->
<g id="node5" class="node">
<title>u4</title>
<ellipse fill="#bbffbb" stroke="#000000" stroke-width="0" cx="211.9739" cy="-234" rx="40.0939" ry="18"/>
<text text-anchor="middle" x="211.9739" y="-230.3" font-family="Times,serif" font-size="14.00" fill="#000000">Player</text>
</g>
<!-- u3&#45;&gt;u4 -->
<g id="edge7" class="edge">
<title>u3&#45;&gt;u4</title>
<path fill="none" stroke="#000000" d="M264.9705,-289.3008C256.0876,-280.0317 244.8821,-268.339 235.0653,-258.0954"/>
<polygon fill="#000000" stroke="#000000" points="237.3366,-255.4069 227.8905,-250.6087 232.2827,-260.2502 237.3366,-255.4069"/>
</g>
<!-- u3&#45;&gt;u5 -->
<g id="edge8" class="edge">
<title>u3&#45;&gt;u5</title>
<path fill="none" stroke="#000000" d="M249.2372,-294.6747C224.6285,-285.1546 190.2382,-270.1989 162.9739,-252 134.2986,-232.8592 105.9077,-205.2295 87.3228,-185.6423"/>
<polygon fill="#000000" stroke="#000000" points="89.849,-183.2194 80.4624,-178.3059 84.7362,-188.0005 89.849,-183.2194"/>
</g>
<!-- u4&#45;&gt;u0 -->
<g id="edge9" class="edge">
<title>u4&#45;&gt;u0</title>
<path fill="none" stroke="#000000" d="M223.9156,-216.6302C241.16,-191.5475 273.157,-145.0064 293.1873,-115.8714"/>
<polygon fill="#000000" stroke="#000000" points="296.2087,-117.6547 298.9899,-107.4314 290.4404,-113.6889 296.2087,-117.6547"/>
</g>
<!-- u4&#45;&gt;u1 -->
<g id="edge10" class="edge">
<title>u4&#45;&gt;u1</title>
<path fill="none" stroke="#000000" d="M215.2585,-216.0208C221.4406,-185.0658 236.6997,-120.3729 263.9739,-72 270.1115,-61.1144 278.6782,-50.4496 286.8191,-41.5114"/>
<polygon fill="#000000" stroke="#000000" points="289.4633,-43.8092 293.7918,-34.1388 284.3775,-38.9992 289.4633,-43.8092"/>
</g>
<!-- u4&#45;&gt;u5 -->
<g id="edge11" class="edge">
<title>u4&#45;&gt;u5</title>
<path fill="none" stroke="#000000" d="M184.8546,-220.6261C160.7645,-208.746 125.4641,-191.3376 99.5878,-178.5767"/>
<polygon fill="#000000" stroke="#000000" points="101.0358,-175.3884 90.5191,-174.1045 97.9397,-181.6665 101.0358,-175.3884"/>
</g>
<!-- u5&#45;&gt;u0 -->
<g id="edge12" class="edge">
<title>u5&#45;&gt;u0</title>
<path fill="none" stroke="#000000" d="M95.0407,-153.4579C138.0868,-140.8077 219.029,-117.0205 268.6571,-102.436"/>
<polygon fill="#000000" stroke="#000000" points="269.8383,-105.7369 278.4457,-99.5593 267.8646,-99.0209 269.8383,-105.7369"/>
</g>
<!-- u5&#45;&gt;u1 -->
<g id="edge13" class="edge">
<title>u5&#45;&gt;u1</title>
<path fill="none" stroke="#000000" d="M80.0563,-145.623C97.8505,-125.8102 130.2459,-92.561 163.9739,-72 196.198,-52.3558 236.6955,-38.1384 267.0203,-29.2382"/>
<polygon fill="#000000" stroke="#000000" points="268.2314,-32.5324 276.8878,-26.4236 266.3112,-25.8009 268.2314,-32.5324"/>
</g>
<!-- u6 -->
<g id="node7" class="node">
<title>u6</title>
<ellipse fill="#bbffbb" stroke="#000000" stroke-width="0" cx="414.9739" cy="-450" rx="34.394" ry="18"/>
<text text-anchor="middle" x="414.9739" y="-446.3" font-family="Times,serif" font-size="14.00" fill="#000000">Main</text>
</g>
<!-- u6&#45;&gt;u2 -->
<g id="edge14" class="edge">
<title>u6&#45;&gt;u2</title>
<path fill="none" stroke="#000000" d="M390.7075,-436.9613C369.6677,-425.6563 338.9784,-409.1666 315.4011,-396.4982"/>
<polygon fill="#000000" stroke="#000000" points="316.8926,-393.3264 306.4271,-391.6763 313.5794,-399.4927 316.8926,-393.3264"/>
</g>
<!-- u7 -->
<g id="node8" class="node">
<title>u7</title>
<ellipse fill="#bbffbb" stroke="#000000" stroke-width="0" cx="548.9739" cy="-378" rx="76.0865" ry="18"/>
<text text-anchor="middle" x="548.9739" y="-374.3" font-family="Times,serif" font-size="14.00" fill="#000000">Paths_twinpin</text>
</g>
<!-- u6&#45;&gt;u7 -->
<g id="edge15" class="edge">
<title>u6&#45;&gt;u7</title>
<path fill="none" stroke="#000000" d="M439.2403,-436.9613C458.7288,-426.4899 486.496,-411.5702 509.2219,-399.3593"/>
<polygon fill="#000000" stroke="#000000" points="511.141,-402.3014 518.2933,-394.4851 507.8278,-396.1352 511.141,-402.3014"/>
</g>
</g>
</svg>
