<?xml version="1.0" encoding="UTF-8" standalone="no"?>
<!DOCTYPE svg PUBLIC "-//W3C//DTD SVG 1.1//EN"
 "http://www.w3.org/Graphics/SVG/1.1/DTD/svg11.dtd">
<!-- Generated by graphviz version 2.40.1 (0)
 -->
<!-- Title: G Pages: 1 -->
<svg width="431pt" height="288pt"
 viewBox="0.00 0.00 430.75 288.00" xmlns="http://www.w3.org/2000/svg" xmlns:xlink="http://www.w3.org/1999/xlink">
<g id="graph0" class="graph" transform="scale(.5255 .5255) rotate(0) translate(4 544)">
<title>G</title>
<polygon fill="#ffffff" stroke="transparent" points="-4,4 -4,-544 815.6159,-544 815.6159,4 -4,4"/>
<!-- u0 -->
<g id="node1" class="node">
<title>u0</title>
<ellipse fill="#bbffbb" stroke="#000000" stroke-width="0" cx="411.1053" cy="-234" rx="38.1938" ry="18"/>
<text text-anchor="middle" x="411.1053" y="-230.3" font-family="Times,serif" font-size="14.00" fill="#000000">Bullet</text>
</g>
<!-- u2 -->
<g id="node2" class="node">
<title>u2</title>
<ellipse fill="#bbffbb" stroke="#000000" stroke-width="0" cx="411.1053" cy="-162" rx="38.1938" ry="18"/>
<text text-anchor="middle" x="411.1053" y="-158.3" font-family="Times,serif" font-size="14.00" fill="#000000">Circle</text>
</g>
<!-- u0&#45;&gt;u2 -->
<g id="edge1" class="edge">
<title>u0&#45;&gt;u2</title>
<path fill="none" stroke="#000000" d="M411.1053,-215.8314C411.1053,-208.131 411.1053,-198.9743 411.1053,-190.4166"/>
<polygon fill="#000000" stroke="#000000" points="414.6054,-190.4132 411.1053,-180.4133 407.6054,-190.4133 414.6054,-190.4132"/>
</g>
<!-- u3 -->
<g id="node4" class="node">
<title>u3</title>
<ellipse fill="#bbffbb" stroke="#000000" stroke-width="0" cx="411.1053" cy="-90" rx="38.9931" ry="18"/>
<text text-anchor="middle" x="411.1053" y="-86.3" font-family="Times,serif" font-size="14.00" fill="#000000">Visual</text>
</g>
<!-- u2&#45;&gt;u3 -->
<g id="edge2" class="edge">
<title>u2&#45;&gt;u3</title>
<path fill="none" stroke="#000000" d="M411.1053,-143.8314C411.1053,-136.131 411.1053,-126.9743 411.1053,-118.4166"/>
<polygon fill="#000000" stroke="#000000" points="414.6054,-118.4132 411.1053,-108.4133 407.6054,-118.4133 414.6054,-118.4132"/>
</g>
<!-- u1 -->
<g id="node3" class="node">
<title>u1</title>
<ellipse fill="#bbffbb" stroke="#000000" stroke-width="0" cx="411.1053" cy="-18" rx="38.1938" ry="18"/>
<text text-anchor="middle" x="411.1053" y="-14.3" font-family="Times,serif" font-size="14.00" fill="#000000">Space</text>
</g>
<!-- u3&#45;&gt;u1 -->
<g id="edge3" class="edge">
<title>u3&#45;&gt;u1</title>
<path fill="none" stroke="#000000" d="M411.1053,-71.8314C411.1053,-64.131 411.1053,-54.9743 411.1053,-46.4166"/>
<polygon fill="#000000" stroke="#000000" points="414.6054,-46.4132 411.1053,-36.4133 407.6054,-46.4133 414.6054,-46.4132"/>
</g>
<!-- u4 -->
<g id="node5" class="node">
<title>u4</title>
<ellipse fill="#bbffbb" stroke="#000000" stroke-width="0" cx="411.1053" cy="-450" rx="37.8943" ry="18"/>
<text text-anchor="middle" x="411.1053" y="-446.3" font-family="Times,serif" font-size="14.00" fill="#000000">Game</text>
</g>
<!-- u5 -->
<g id="node6" class="node">
<title>u5</title>
<ellipse fill="#bbffbb" stroke="#000000" stroke-width="0" cx="251.1053" cy="-378" rx="40.0939" ry="18"/>
<text text-anchor="middle" x="251.1053" y="-374.3" font-family="Times,serif" font-size="14.00" fill="#000000">Match</text>
</g>
<!-- u4&#45;&gt;u5 -->
<g id="edge4" class="edge">
<title>u4&#45;&gt;u5</title>
<path fill="none" stroke="#000000" d="M383.6003,-437.6228C357.5113,-425.8827 318.0867,-408.1416 289.0222,-395.0626"/>
<polygon fill="#000000" stroke="#000000" points="290.1524,-391.7332 279.5969,-390.8213 287.2799,-398.1167 290.1524,-391.7332"/>
</g>
<!-- u7 -->
<g id="node7" class="node">
<title>u7</title>
<ellipse fill="#bbffbb" stroke="#000000" stroke-width="0" cx="637.1053" cy="-306" rx="37.0935" ry="18"/>
<text text-anchor="middle" x="637.1053" y="-302.3" font-family="Times,serif" font-size="14.00" fill="#000000">Menu</text>
</g>
<!-- u4&#45;&gt;u7 -->
<g id="edge5" class="edge">
<title>u4&#45;&gt;u7</title>
<path fill="none" stroke="#000000" d="M434.0191,-435.4001C474.7333,-409.4583 559.7235,-355.3052 605.7959,-325.9493"/>
<polygon fill="#000000" stroke="#000000" points="607.914,-328.7499 614.4668,-320.4245 604.1525,-322.8464 607.914,-328.7499"/>
</g>
<!-- u6 -->
<g id="node8" class="node">
<title>u6</title>
<ellipse fill="#bbffbb" stroke="#000000" stroke-width="0" cx="190.1053" cy="-306" rx="40.0939" ry="18"/>
<text text-anchor="middle" x="190.1053" y="-302.3" font-family="Times,serif" font-size="14.00" fill="#000000">Player</text>
</g>
<!-- u5&#45;&gt;u6 -->
<g id="edge6" class="edge">
<title>u5&#45;&gt;u6</title>
<path fill="none" stroke="#000000" d="M236.6491,-360.937C228.9763,-351.8806 219.4099,-340.5891 210.9489,-330.6023"/>
<polygon fill="#000000" stroke="#000000" points="213.5923,-328.3079 204.4576,-322.9405 208.2514,-332.8329 213.5923,-328.3079"/>
</g>
<!-- u7&#45;&gt;u0 -->
<g id="edge8" class="edge">
<title>u7&#45;&gt;u0</title>
<path fill="none" stroke="#000000" d="M605.6809,-295.9887C565.7644,-283.272 496.7689,-261.2911 452.5706,-247.2102"/>
<polygon fill="#000000" stroke="#000000" points="453.5819,-243.8591 442.9913,-244.1584 451.457,-250.5288 453.5819,-243.8591"/>
</g>
<!-- u6&#45;&gt;u0 -->
<g id="edge7" class="edge">
<title>u6&#45;&gt;u0</title>
<path fill="none" stroke="#000000" d="M222.7146,-295.3762C261.7306,-282.665 327.1063,-261.3662 369.6668,-247.5003"/>
<polygon fill="#000000" stroke="#000000" points="371.0137,-250.7426 379.4377,-244.317 368.8453,-244.0869 371.0137,-250.7426"/>
</g>
<!-- u8 -->
<g id="node9" class="node">
<title>u8</title>
<ellipse fill="#bbffbb" stroke="#000000" stroke-width="0" cx="411.1053" cy="-522" rx="34.394" ry="18"/>
<text text-anchor="middle" x="411.1053" y="-518.3" font-family="Times,serif" font-size="14.00" fill="#000000">Main</text>
</g>
<!-- u8&#45;&gt;u4 -->
<g id="edge9" class="edge">
<title>u8&#45;&gt;u4</title>
<path fill="none" stroke="#000000" d="M411.1053,-503.8314C411.1053,-496.131 411.1053,-486.9743 411.1053,-478.4166"/>
<polygon fill="#000000" stroke="#000000" points="414.6054,-478.4132 411.1053,-468.4133 407.6054,-478.4133 414.6054,-478.4132"/>
</g>
</g>
</svg>
